# xmcd
#
# Track frame offsets:
# 150
# 18877
# 30150
# 42507
# 57992
# 71512
# 85440
# 98320
# 108504
# 120547
# 134645
# 152802
# 162545
# 176967
#
# Disc length: 2513 seconds
#
#
# Revision: 0
# Processed by: cddbd v1.5.1PL2 Copyright (c) Steve Scherf et al.
# Submitted via: FreeRIP 2.944 
#
DISCID=b809cf0e
DTITLE=Vários - Encontros Sertanejos
DYEAR=1900
DGENRE=Country
TTITLE0=Chico e Marcos - No Rancho Fundo
TTITLE1=Gárcia e Zé Matão - Festa do Peão de Boiadeiro
TTITLE2=Belmiro e Belman - Bodoque
TTITLE3=Jota e Jata - Bicho Bom é Mulher
TTITLE4=Carolina e Robertinho - Meu Primeiro Amor
TTITLE5=Cláudio de Barros - Pé de Cedro
TTITLE6=Carolina e Robertinho - Beijinho Doce
TTITLE7=Cláudio de Barros - Três Corações
TTITLE8=Irmãs Galvão - Luar de Aquidauana
TTITLE9=Jeca Mineiro e Luizinho - Pretinho Aleijado
TTITLE10=Manduri e Fernandinho - Tribunal do Amor
TTITLE11=Irmãs Galvão - Juriti Mineira
TTITLE12=Mococa e Moraci - A Noiva do Meu Bairro
TTITLE13=Pedro Bento e Zé da Estrada - Homenagem a Mato Grosso
EXTD=
EXTT0=
EXTT1=
EXTT2=
EXTT3=
EXTT4=
EXTT5=
EXTT6=
EXTT7=
EXTT8=
EXTT9=
EXTT10=
EXTT11=
EXTT12=
EXTT13=
PLAYORDER=
